<svg xmlns="http://www.w3.org/2000/svg" viewBox="0 0 192.6 126.9"><defs><style>.cls-1{fill:#e9f76b;}.cls-2{font-size:26.3px;font-family:MVBoli, MV Boli;}.cls-12,.cls-2{fill:#72ea24;}.cls-11,.cls-3,.cls-4,.cls-5,.cls-7{fill:#3c0080;}.cls-3,.cls-4,.cls-5{font-size:28px;font-family:ForteMT, Forte;}.cls-4{letter-spacing:-0.04em;}.cls-5{letter-spacing:-0.07em;}.cls-6{fill:#8f75ff;}.cls-7{font-size:11.32px;font-family:ArialRoundedMTBold, Arial Rounded MT Bold;letter-spacing:0.32em;}.cls-8{letter-spacing:0.31em;}.cls-9{letter-spacing:0.28em;}.cls-10{letter-spacing:0.32em;}</style></defs><g id="OBJECTS"><rect class="cls-1" y="74.1" width="169.91" height="13.07"/><text class="cls-2" transform="translate(6.24 73.03)">Let’s<tspan class="cls-3" x="63.17" y="0">GA</tspan><tspan class="cls-4" x="101.08" y="0">M</tspan><tspan class="cls-5" x="130.28" y="0">I</tspan><tspan class="cls-3" x="144.57" y="0">NG</tspan></text><polygon class="cls-6" points="104.45 11.59 96.25 3.39 82.49 17.15 68.72 3.39 60.53 11.59 74.29 25.35 60.53 39.11 68.72 47.31 82.49 33.55 96.25 47.31 104.45 39.11 90.69 25.35 104.45 11.59"/><text class="cls-7" transform="translate(11.43 86.34)">ARE <tspan class="cls-8" x="41.17" y="0">Y</tspan><tspan x="51.72" y="0">OU REA</tspan><tspan class="cls-9" x="117.71" y="0">D</tspan><tspan class="cls-10" x="129.29" y="0">Y?</tspan></text><rect class="cls-6" x="113.31" y="116.93" width="79.29" height="9.98"/><path class="cls-11" d="M283.47,219.22A23.21,23.21,0,1,1,306.68,196,23.23,23.23,0,0,1,283.47,219.22Zm0-34.83A11.62,11.62,0,1,0,295.08,196,11.63,11.63,0,0,0,283.47,184.39Z" transform="translate(-153.35 -167.27)"/><rect class="cls-12" x="124.2" width="11.83" height="27.15"/><path class="cls-11" d="M213.88,213.78h-55l27.48-41.07Zm-33.25-11.6h11.54l-5.77-8.62Z" transform="translate(-153.35 -167.27)"/></g></svg>